<?xml version='1.0' encoding='utf-8'?>
<svg xmlns="http://www.w3.org/2000/svg" id="Layer_1" data-name="Layer 1" viewBox="0 0 213.1 142.23">
  <defs>
    <style>
      .cls-1 {
        fill: #231f20;
      }

      .cls-2 {
        fill: #fff;
      }

      .cls-3 {
        opacity: .25;
      }

      .cls-4 {
        stroke-width: .5px;
      }

      .cls-4, .cls-5, .cls-6 {
        fill: none;
        stroke-miterlimit: 10;
      }

      .cls-4, .cls-6 {
        stroke: #58595b;
      }

      .cls-5 {
        stroke: #231f20;
      }

      .cls-5, .cls-6 {
        stroke-width: .25px;
      }
    </style>
  </defs>
  <g class="cls-3">
    <path class="cls-2" d="M209.7,141.98H.25s0-141.73,0-141.73h212.6s0,138.58,0,138.58c0,1.74-1.41,3.15-3.15,3.15Z" />
    <path class="cls-4" d="M209.7,141.98H.25s0-141.73,0-141.73h212.6s0,138.58,0,138.58c0,1.74-1.41,3.15-3.15,3.15Z" />
  </g>
  <g>
    <g>
      <path class="cls-1" d="M109.48,103.94c0,1.34-.58,2.01-1.73,2.01v-6.37c0-1.34-.36-2.4-1.08-3.16s-1.8-1.15-3.23-1.15c-.64,0-1.23.08-1.76.23-.23.06-.43.09-.61.09-.4,0-.7-.18-.89-.54.81-.46,2.02-.7,3.63-.7,1.89,0,3.33.49,4.33,1.47.9.89,1.35,2.1,1.35,3.62v4.48ZM102.12,104.02c0,1.29-.57,1.94-1.71,1.94v-5.7c0-.35.08-.62.25-.81.17-.19.37-.29.6-.29s.42.09.58.26c.18.22.27.5.27.84v3.76Z" />
      <path class="cls-6" d="M109.48,103.94c0,1.34-.58,2.01-1.73,2.01v-6.37c0-1.34-.36-2.4-1.08-3.16s-1.8-1.15-3.23-1.15c-.64,0-1.23.08-1.76.23-.23.06-.43.09-.61.09-.4,0-.7-.18-.89-.54.81-.46,2.02-.7,3.63-.7,1.89,0,3.33.49,4.33,1.47.9.89,1.35,2.1,1.35,3.62v4.48ZM102.12,104.02c0,1.29-.57,1.94-1.71,1.94v-5.7c0-.35.08-.62.25-.81.17-.19.37-.29.6-.29s.42.09.58.26c.18.22.27.5.27.84v3.76Z" />
    </g>
    <g>
      <path class="cls-1" d="M120.15,94.59c0,.61-.3.92-.9.92h-.58c-.33,0-.54.22-.65.66-.04.19-.06.55-.06,1.07v6.73c0,1.33-.56,2-1.69,2v-8.36c0-.46.11-.88.33-1.27.22-.39.51-.66.86-.82h-5.33c-.9,0-1.35-.31-1.35-.92h9.35Z" />
      <path class="cls-6" d="M120.15,94.59c0,.61-.3.92-.9.92h-.58c-.33,0-.54.22-.65.66-.04.19-.06.55-.06,1.07v6.73c0,1.33-.56,2-1.69,2v-8.36c0-.46.11-.88.33-1.27.22-.39.51-.66.86-.82h-5.33c-.9,0-1.35-.31-1.35-.92h9.35Z" />
    </g>
    <g>
      <path class="cls-1" d="M124.11,99.16c0,1.32-.56,1.98-1.69,1.98v-5.78c0-.62.28-.93.83-.93.23,0,.43.09.6.27.17.18.26.43.26.75v3.71Z" />
      <path class="cls-6" d="M124.11,99.16c0,1.32-.56,1.98-1.69,1.98v-5.78c0-.62.28-.93.83-.93.23,0,.43.09.6.27.17.18.26.43.26.75v3.71Z" />
    </g>
    <g>
      <path class="cls-1" d="M134.21,98.45c0,1.42-.59,2.79-1.76,4.12-.72.81-1.62,1.55-2.68,2.21-.96.58-1.85.97-2.64,1.18,0-.43.22-.78.67-1.05,1.67-.97,2.89-2,3.65-3.1.65-.92.97-1.95.97-3.09,0-1.06-.32-1.88-.97-2.46-.58-.5-1.32-.75-2.22-.75h-3.46v-2.5c0-1.24.56-1.86,1.69-1.86v3.41h2.7c1.3,0,2.32.37,3.04,1.1.68.69,1.02,1.61,1.02,2.77Z" />
      <path class="cls-6" d="M134.21,98.45c0,1.42-.59,2.79-1.76,4.12-.72.81-1.62,1.55-2.68,2.21-.96.58-1.85.97-2.64,1.18,0-.43.22-.78.67-1.05,1.67-.97,2.89-2,3.65-3.1.65-.92.97-1.95.97-3.09,0-1.06-.32-1.88-.97-2.46-.58-.5-1.32-.75-2.22-.75h-3.46v-2.5c0-1.24.56-1.86,1.69-1.86v3.41h2.7c1.3,0,2.32.37,3.04,1.1.68.69,1.02,1.61,1.02,2.77Z" />
    </g>
    <g>
      <path class="cls-1" d="M141.26,104.61c0,.5-.3.96-.9,1.36-.19-.18-.41-.66-.68-1.45-.24-.68-.41-1.25-.5-1.71-.01-.06-.04-.07-.07-.04-.02.03-.04.06-.06.09-.32,1.55-1.25,2.57-2.81,3.08-.04.01-.14.02-.31.02-.12,0-.23-.07-.32-.2-.09-.13-.13-.27-.13-.41,0-.29.17-.5.51-.64.99-.41,1.71-.87,2.17-1.39.51-.58.76-1.3.76-2.16v-3.48c0-.79-.17-1.39-.52-1.83-.33-.39-.76-.58-1.29-.58h-.24c-.58,0-.89-.23-.96-.69.22-.09.69-.13,1.41-.13.96,0,1.74.33,2.34.98.6.65.9,1.53.9,2.63v3.01c0,.88.18,1.86.55,2.92.09.25.14.46.14.61Z" />
      <path class="cls-6" d="M141.26,104.61c0,.5-.3.96-.9,1.36-.19-.18-.41-.66-.68-1.45-.24-.68-.41-1.25-.5-1.71-.01-.06-.04-.07-.07-.04-.02.03-.04.06-.06.09-.32,1.55-1.25,2.57-2.81,3.08-.04.01-.14.02-.31.02-.12,0-.23-.07-.32-.2-.09-.13-.13-.27-.13-.41,0-.29.17-.5.51-.64.99-.41,1.71-.87,2.17-1.39.51-.58.76-1.3.76-2.16v-3.48c0-.79-.17-1.39-.52-1.83-.33-.39-.76-.58-1.29-.58h-.24c-.58,0-.89-.23-.96-.69.22-.09.69-.13,1.41-.13.96,0,1.74.33,2.34.98.6.65.9,1.53.9,2.63v3.01c0,.88.18,1.86.55,2.92.09.25.14.46.14.61Z" />
    </g>
    <g>
      <path class="cls-1" d="M158.08,105.05c0,.38-.12.69-.36.93l-6.15-6.96c-.9.33-1.35,1.21-1.35,2.64v2.39c0,.58-.15,1.05-.44,1.4-.29.35-.7.52-1.23.52v-3.39c0-1.96.82-3.34,2.47-4.14l-2.09-2.23c-.28-.29-.42-.6-.42-.93,0-.42.17-.75.51-.98l5.6,6.15c.8-.51,1.2-1.3,1.2-2.38v-1.83c0-.63.16-1.11.48-1.44.32-.33.72-.49,1.22-.49v2.87c0,.82-.24,1.59-.72,2.3-.45.62-1.01,1.12-1.71,1.51l2.56,2.89c.29.33.44.71.44,1.14Z" />
      <path class="cls-6" d="M158.08,105.05c0,.38-.12.69-.36.93l-6.15-6.96c-.9.33-1.35,1.21-1.35,2.64v2.39c0,.58-.15,1.05-.44,1.4-.29.35-.7.52-1.23.52v-3.39c0-1.96.82-3.34,2.47-4.14l-2.09-2.23c-.28-.29-.42-.6-.42-.93,0-.42.17-.75.51-.98l5.6,6.15c.8-.51,1.2-1.3,1.2-2.38v-1.83c0-.63.16-1.11.48-1.44.32-.33.72-.49,1.22-.49v2.87c0,.82-.24,1.59-.72,2.3-.45.62-1.01,1.12-1.71,1.51l2.56,2.89c.29.33.44.71.44,1.14Z" />
    </g>
    <g>
      <path class="cls-1" d="M167.84,98.45c0,1.42-.59,2.79-1.76,4.12-.72.81-1.62,1.55-2.68,2.21-.96.58-1.85.97-2.64,1.18,0-.43.22-.78.67-1.05,1.67-.97,2.88-2,3.65-3.1.65-.92.97-1.95.97-3.09,0-1.06-.33-1.88-.97-2.46-.58-.5-1.32-.75-2.22-.75h-3.46v-2.5c0-1.24.56-1.86,1.69-1.86v3.41h2.7c1.3,0,2.32.37,3.04,1.1.68.69,1.02,1.61,1.02,2.77Z" />
      <path class="cls-6" d="M167.84,98.45c0,1.42-.59,2.79-1.76,4.12-.72.81-1.62,1.55-2.68,2.21-.96.58-1.85.97-2.64,1.18,0-.43.22-.78.67-1.05,1.67-.97,2.88-2,3.65-3.1.65-.92.97-1.95.97-3.09,0-1.06-.33-1.88-.97-2.46-.58-.5-1.32-.75-2.22-.75h-3.46v-2.5c0-1.24.56-1.86,1.69-1.86v3.41h2.7c1.3,0,2.32.37,3.04,1.1.68.69,1.02,1.61,1.02,2.77Z" />
    </g>
    <g>
      <path class="cls-1" d="M177.76,98.45c0,1.42-.59,2.79-1.76,4.12-.72.81-1.62,1.55-2.68,2.21-.96.58-1.85.97-2.64,1.18,0-.43.22-.78.67-1.05,1.67-.97,2.89-2,3.65-3.1.65-.92.97-1.95.97-3.09,0-1.06-.32-1.88-.97-2.46-.58-.5-1.32-.75-2.22-.75h-3.46v-2.5c0-1.24.56-1.86,1.69-1.86v3.41h2.7c1.3,0,2.32.37,3.04,1.1.68.69,1.02,1.61,1.02,2.77Z" />
      <path class="cls-6" d="M177.76,98.45c0,1.42-.59,2.79-1.76,4.12-.72.81-1.62,1.55-2.68,2.21-.96.58-1.85.97-2.64,1.18,0-.43.22-.78.67-1.05,1.67-.97,2.89-2,3.65-3.1.65-.92.97-1.95.97-3.09,0-1.06-.32-1.88-.97-2.46-.58-.5-1.32-.75-2.22-.75h-3.46v-2.5c0-1.24.56-1.86,1.69-1.86v3.41h2.7c1.3,0,2.32.37,3.04,1.1.68.69,1.02,1.61,1.02,2.77Z" />
    </g>
  </g>
  <g>
    <g>
      <path class="cls-1" d="M79.07,127.56c0,1.34-.58,2.01-1.74,2.01v-6.37c0-1.34-.36-2.4-1.08-3.16-.72-.77-1.8-1.15-3.23-1.15-.64,0-1.23.08-1.76.23-.23.06-.43.09-.61.09-.4,0-.7-.18-.89-.54.81-.46,2.02-.7,3.63-.7,1.89,0,3.33.49,4.33,1.47.9.89,1.35,2.1,1.35,3.62v4.48ZM71.71,127.64c0,1.29-.57,1.94-1.71,1.94v-5.7c0-.35.08-.62.26-.81.17-.19.37-.29.6-.29s.42.09.58.26c.18.22.27.5.27.84v3.76Z" />
      <path class="cls-6" d="M79.07,127.56c0,1.34-.58,2.01-1.74,2.01v-6.37c0-1.34-.36-2.4-1.08-3.16-.72-.77-1.8-1.15-3.23-1.15-.64,0-1.23.08-1.76.23-.23.06-.43.09-.61.09-.4,0-.7-.18-.89-.54.81-.46,2.02-.7,3.63-.7,1.89,0,3.33.49,4.33,1.47.9.89,1.35,2.1,1.35,3.62v4.48ZM71.71,127.64c0,1.29-.57,1.94-1.71,1.94v-5.7c0-.35.08-.62.26-.81.17-.19.37-.29.6-.29s.42.09.58.26c.18.22.27.5.27.84v3.76Z" />
    </g>
    <g>
      <path class="cls-1" d="M89.74,118.21c0,.61-.3.92-.9.92h-.58c-.33,0-.54.22-.65.66-.04.19-.06.55-.06,1.07v6.73c0,1.33-.56,2-1.69,2v-8.36c0-.46.11-.88.33-1.27.22-.39.51-.66.86-.82h-5.33c-.9,0-1.34-.31-1.34-.92h9.35Z" />
      <path class="cls-6" d="M89.74,118.21c0,.61-.3.92-.9.92h-.58c-.33,0-.54.22-.65.66-.04.19-.06.55-.06,1.07v6.73c0,1.33-.56,2-1.69,2v-8.36c0-.46.11-.88.33-1.27.22-.39.51-.66.86-.82h-5.33c-.9,0-1.34-.31-1.34-.92h9.35Z" />
    </g>
    <g>
      <path class="cls-1" d="M93.7,122.78c0,1.32-.56,1.98-1.69,1.98v-5.78c0-.62.28-.93.83-.93.23,0,.43.09.6.27.17.18.25.43.25.75v3.71Z" />
      <path class="cls-6" d="M93.7,122.78c0,1.32-.56,1.98-1.69,1.98v-5.78c0-.62.28-.93.83-.93.23,0,.43.09.6.27.17.18.25.43.25.75v3.71Z" />
    </g>
    <g>
      <path class="cls-1" d="M103.8,122.07c0,1.42-.59,2.79-1.76,4.12-.72.81-1.62,1.55-2.68,2.21-.96.58-1.85.97-2.64,1.18,0-.43.22-.78.67-1.05,1.67-.97,2.88-2,3.65-3.1.65-.92.97-1.95.97-3.09,0-1.06-.33-1.88-.97-2.46-.58-.5-1.32-.75-2.22-.75h-3.46v-2.5c0-1.24.56-1.86,1.69-1.86v3.41h2.7c1.3,0,2.32.37,3.04,1.1.68.69,1.02,1.61,1.02,2.77Z" />
      <path class="cls-6" d="M103.8,122.07c0,1.42-.59,2.79-1.76,4.12-.72.81-1.62,1.55-2.68,2.21-.96.58-1.85.97-2.64,1.18,0-.43.22-.78.67-1.05,1.67-.97,2.88-2,3.65-3.1.65-.92.97-1.95.97-3.09,0-1.06-.33-1.88-.97-2.46-.58-.5-1.32-.75-2.22-.75h-3.46v-2.5c0-1.24.56-1.86,1.69-1.86v3.41h2.7c1.3,0,2.32.37,3.04,1.1.68.69,1.02,1.61,1.02,2.77Z" />
    </g>
    <g>
      <path class="cls-1" d="M110.85,128.23c0,.5-.3.96-.9,1.36-.19-.18-.41-.66-.68-1.45-.24-.68-.41-1.25-.5-1.71-.01-.06-.04-.07-.07-.04-.03.03-.04.06-.06.09-.32,1.55-1.25,2.57-2.81,3.08-.04.01-.14.02-.31.02-.12,0-.23-.07-.32-.2s-.13-.27-.13-.41c0-.29.17-.5.51-.64.99-.41,1.71-.87,2.17-1.39.51-.58.76-1.3.76-2.16v-3.48c0-.79-.17-1.39-.52-1.83-.33-.39-.76-.58-1.29-.58h-.24c-.58,0-.89-.23-.96-.69.22-.09.69-.13,1.41-.13.96,0,1.74.33,2.34.98.6.65.91,1.53.91,2.63v3.01c0,.88.18,1.86.55,2.92.09.25.14.46.14.61Z" />
      <path class="cls-6" d="M110.85,128.23c0,.5-.3.96-.9,1.36-.19-.18-.41-.66-.68-1.45-.24-.68-.41-1.25-.5-1.71-.01-.06-.04-.07-.07-.04-.03.03-.04.06-.06.09-.32,1.55-1.25,2.57-2.81,3.08-.04.01-.14.02-.31.02-.12,0-.23-.07-.32-.2s-.13-.27-.13-.41c0-.29.17-.5.51-.64.99-.41,1.71-.87,2.17-1.39.51-.58.76-1.3.76-2.16v-3.48c0-.79-.17-1.39-.52-1.83-.33-.39-.76-.58-1.29-.58h-.24c-.58,0-.89-.23-.96-.69.22-.09.69-.13,1.41-.13.96,0,1.74.33,2.34.98.6.65.91,1.53.91,2.63v3.01c0,.88.18,1.86.55,2.92.09.25.14.46.14.61Z" />
    </g>
    <g>
      <path class="cls-1" d="M125.75,127.56c0,1.34-.58,2.01-1.73,2.01v-6.4c0-1.34-.34-2.39-1.01-3.14s-1.66-1.13-2.96-1.13c-.36,0-.85.08-1.48.23-.22.05-.37.07-.46.07-.22,0-.44-.21-.67-.63.75-.39,1.75-.58,3.01-.58,1.63,0,2.92.42,3.85,1.25.96.87,1.45,2.09,1.45,3.65v4.68Z" />
      <path class="cls-6" d="M125.75,127.56c0,1.34-.58,2.01-1.73,2.01v-6.4c0-1.34-.34-2.39-1.01-3.14s-1.66-1.13-2.96-1.13c-.36,0-.85.08-1.48.23-.22.05-.37.07-.46.07-.22,0-.44-.21-.67-.63.75-.39,1.75-.58,3.01-.58,1.63,0,2.92.42,3.85,1.25.96.87,1.45,2.09,1.45,3.65v4.68Z" />
    </g>
    <g>
      <path class="cls-1" d="M129.91,127.6c0,1.33-.56,1.99-1.69,1.99v-10.62c0-.62.28-.93.83-.93.23,0,.43.09.6.27.17.18.26.43.26.75v8.54Z" />
      <path class="cls-6" d="M129.91,127.6c0,1.33-.56,1.99-1.69,1.99v-10.62c0-.62.28-.93.83-.93.23,0,.43.09.6.27.17.18.26.43.26.75v8.54Z" />
    </g>
    <g>
      <path class="cls-1" d="M140.77,118.21c0,.61-.3.92-.9.92h-.58c-.33,0-.54.22-.65.66-.04.19-.06.55-.06,1.07v6.73c0,1.33-.56,2-1.69,2v-8.36c0-.46.11-.88.33-1.27.22-.39.51-.66.86-.82h-5.33c-.9,0-1.35-.31-1.35-.92h9.35Z" />
      <path class="cls-6" d="M140.77,118.21c0,.61-.3.92-.9.92h-.58c-.33,0-.54.22-.65.66-.04.19-.06.55-.06,1.07v6.73c0,1.33-.56,2-1.69,2v-8.36c0-.46.11-.88.33-1.27.22-.39.51-.66.86-.82h-5.33c-.9,0-1.35-.31-1.35-.92h9.35Z" />
    </g>
    <g>
      <path class="cls-1" d="M150.19,123.63c0,1.79-.55,3.23-1.65,4.31-1.04,1.05-2.35,1.58-3.93,1.58-.93,0-1.83-.16-2.7-.49.24-.45.5-.67.76-.67-.01,0,.14.04.46.11.36.09.73.14,1.1.14,1.2,0,2.17-.42,2.92-1.24.82-.88,1.23-2.13,1.23-3.74,0-1.5-.4-2.67-1.2-3.52-.76-.81-1.75-1.22-2.96-1.22-.5,0-.88.04-1.16.11-.23.07-.41.1-.53.1-.18,0-.39-.22-.63-.67.64-.33,1.54-.49,2.7-.49,1.58,0,2.89.47,3.92,1.42,1.11,1.04,1.67,2.46,1.67,4.26Z" />
      <path class="cls-6" d="M150.19,123.63c0,1.79-.55,3.23-1.65,4.31-1.04,1.05-2.35,1.58-3.93,1.58-.93,0-1.83-.16-2.7-.49.24-.45.5-.67.76-.67-.01,0,.14.04.46.11.36.09.73.14,1.1.14,1.2,0,2.17-.42,2.92-1.24.82-.88,1.23-2.13,1.23-3.74,0-1.5-.4-2.67-1.2-3.52-.76-.81-1.75-1.22-2.96-1.22-.5,0-.88.04-1.16.11-.23.07-.41.1-.53.1-.18,0-.39-.22-.63-.67.64-.33,1.54-.49,2.7-.49,1.58,0,2.89.47,3.92,1.42,1.11,1.04,1.67,2.46,1.67,4.26Z" />
    </g>
    <g>
      <path class="cls-1" d="M167.04,128.09c-.43.62-.94.99-1.54,1.1h-8.03v-10.51c.99-.46,2.21-.7,3.67-.7,1.86,0,3.31.46,4.35,1.39,1.04.92,1.56,2.17,1.56,3.74v4.97ZM165.32,128.27v-5.17c0-1.32-.4-2.35-1.2-3.09s-1.93-1.11-3.39-1.11c-.71,0-1.23.07-1.58.21v9.16h6.16Z" />
      <path class="cls-6" d="M167.04,128.09c-.43.62-.94.99-1.54,1.1h-8.03v-10.51c.99-.46,2.21-.7,3.67-.7,1.86,0,3.31.46,4.35,1.39,1.04.92,1.56,2.17,1.56,3.74v4.97ZM165.32,128.27v-5.17c0-1.32-.4-2.35-1.2-3.09s-1.93-1.11-3.39-1.11c-.71,0-1.23.07-1.58.21v9.16h6.16Z" />
    </g>
    <g>
      <path class="cls-1" d="M177.57,122.22c0,3.28-1.45,5.52-4.35,6.71-.59.24-1.41.49-2.45.74-.96.23-1.73.38-2.3.44.15-.63.52-1,1.1-1.09.79-.12,1.43-.27,1.94-.46l-2.26-7.82c-.1-.36-.15-.69-.15-.99,0-.5.12-.91.36-1.25.24-.34.53-.52.88-.55l2.65,10.14c.53-.24.95-.49,1.26-.74,1.06-.87,1.6-2.36,1.6-4.46v-2.89c0-1.37.58-2.05,1.73-2.05v4.29Z" />
      <path class="cls-6" d="M177.57,122.22c0,3.28-1.45,5.52-4.35,6.71-.59.24-1.41.49-2.45.74-.96.23-1.73.38-2.3.44.15-.63.52-1,1.1-1.09.79-.12,1.43-.27,1.94-.46l-2.26-7.82c-.1-.36-.15-.69-.15-.99,0-.5.12-.91.36-1.25.24-.34.53-.52.88-.55l2.65,10.14c.53-.24.95-.49,1.26-.74,1.06-.87,1.6-2.36,1.6-4.46v-2.89c0-1.37.58-2.05,1.73-2.05v4.29Z" />
    </g>
  </g>
  <line x1="27" y1="75" x2="186" y2="75" stroke="#58595b" stroke-width="0.4" stroke-linecap="round" /></svg>