<?xml version="1.0" encoding="UTF-8"?>
<svg xmlns="http://www.w3.org/2000/svg" id="Layer_1" data-name="Layer 1" viewBox="0 0 213.1 142.23">
  <defs>
    <style>
      .cls-1 {
        fill: #231f20;
      }

      .cls-2 {
        fill: #fff;
      }

      .cls-3 {
        opacity: .25;
      }

      .cls-4 {
        stroke-width: .5px;
      }

      .cls-4, .cls-5, .cls-6 {
        fill: none;
        stroke-miterlimit: 10;
      }

      .cls-4, .cls-6 {
        stroke: #58595b;
      }

      .cls-5 {
        stroke: #231f20;
      }

      .cls-5, .cls-6 {
        stroke-width: .25px;
      }
    </style>
  </defs>
  <g class="cls-3">
    <path class="cls-2" d="M209.7,141.98H.25s0-141.73,0-141.73h212.6s0,138.58,0,138.58c0,1.74-1.41,3.15-3.15,3.15Z" />
    <path class="cls-4" d="M209.7,141.98H.25s0-141.73,0-141.73h212.6s0,138.58,0,138.58c0,1.74-1.41,3.15-3.15,3.15Z" />
  </g>
  <g>
    <path class="cls-1" d="M35.18,98.41h3.01c1.1,0,1.42.6,1.42,2.19v3.2h-.78v-2.63c0-1.06-.24-1.27-1.03-1.27h-1.72v7.42h-.91v-8.91ZM37.07,102.03h.77v2.7c0,1.03.51,1.11,1.16,1.11h1.6v-7.42h.92v8.91h-3.11c-1.22,0-1.35-.98-1.35-2.52v-2.78Z" />
    <path class="cls-1" d="M50.72,103.14c0,1.37-.43,2.52-1.3,3.44-.78.83-1.65,1.24-2.62,1.24-.9,0-1.65-.25-2.28-.75-.7-.59-1.14-1.47-1.31-2.63.17-.03.3-.05.39-.05.31,0,.58.28.81.83.17.38.45.71.84.99s.8.42,1.22.42c.65,0,1.2-.28,1.65-.84.53-.64.79-1.48.79-2.51s-.22-1.81-.67-2.46c-.45-.65-1.04-.98-1.79-.98-.36,0-.61-.04-.75-.13-.29-.17-.44-.49-.44-.96v-.18h1.04c.6,0,1.1-.22,1.5-.67.45-.51.68-1.22.68-2.13s-.21-1.54-.63-2c-.35-.42-.77-.62-1.26-.62-.81,0-1.37.25-1.69.75-.19.3-.41.44-.65.44-.09,0-.28-.11-.54-.32.64-1.46,1.67-2.18,3.08-2.18.92,0,1.69.31,2.31.94.69.69,1.03,1.67,1.03,2.92,0,.78-.19,1.47-.58,2.07-.39.61-.92,1.02-1.61,1.25.92.14,1.63.63,2.13,1.5.43.75.64,1.63.64,2.63Z" />
    <path class="cls-1" d="M60.01,103.28c0,1.4-.38,2.5-1.12,3.32-.75.82-1.67,1.22-2.78,1.22s-2.02-.4-2.76-1.19c-.77-.84-1.16-1.95-1.16-3.35,0-.94.22-1.79.66-2.56.44-.77,1.08-1.29,1.91-1.57-.59-.21-1.06-.64-1.4-1.3-.35-.66-.52-1.37-.52-2.15,0-1.22.31-2.17.92-2.84.61-.68,1.39-1.01,2.33-1.01s1.72.31,2.31.94c.63.69.94,1.67.94,2.92,0,.76-.17,1.46-.52,2.1-.35.64-.82,1.09-1.4,1.35.83.28,1.48.82,1.95,1.61.42.74.63,1.59.63,2.53ZM58.28,103.28c0-1.04-.23-1.89-.7-2.55-.42-.59-.91-.89-1.48-.89s-1.06.3-1.49.89c-.46.66-.7,1.51-.7,2.55s.2,1.9.6,2.48c.4.58.93.87,1.58.87s1.18-.29,1.57-.87.6-1.41.6-2.48ZM57.76,95.72c0-.87-.17-1.54-.52-2-.31-.4-.69-.6-1.14-.6s-.83.2-1.14.6c-.34.46-.52,1.13-.52,2,0,1.9.55,2.86,1.66,2.86s1.65-.95,1.65-2.86Z" />
  </g>
  <g>
    <g>
      <path class="cls-1" d="M109.48,103.94c0,1.34-.58,2.01-1.73,2.01v-6.37c0-1.34-.36-2.4-1.08-3.16s-1.8-1.15-3.23-1.15c-.64,0-1.23.08-1.76.23-.23.06-.43.09-.61.09-.4,0-.7-.18-.89-.54.81-.46,2.02-.7,3.63-.7,1.89,0,3.33.49,4.33,1.47.9.89,1.35,2.1,1.35,3.62v4.48ZM102.12,104.02c0,1.29-.57,1.94-1.71,1.94v-5.7c0-.35.08-.62.25-.81.17-.19.37-.29.6-.29s.42.09.58.26c.18.22.27.5.27.84v3.76Z" />
      <path class="cls-6" d="M109.48,103.94c0,1.34-.58,2.01-1.73,2.01v-6.37c0-1.34-.36-2.4-1.08-3.16s-1.8-1.15-3.23-1.15c-.64,0-1.23.08-1.76.23-.23.06-.43.09-.61.09-.4,0-.7-.18-.89-.54.81-.46,2.02-.7,3.63-.7,1.89,0,3.33.49,4.33,1.47.9.89,1.35,2.1,1.35,3.62v4.48ZM102.12,104.02c0,1.29-.57,1.94-1.71,1.94v-5.7c0-.35.08-.62.25-.81.17-.19.37-.29.6-.29s.42.09.58.26c.18.22.27.5.27.84v3.76Z" />
    </g>
    <g>
      <path class="cls-1" d="M120.15,94.59c0,.61-.3.92-.9.92h-.58c-.33,0-.54.22-.65.66-.04.19-.06.55-.06,1.07v6.73c0,1.33-.56,2-1.69,2v-8.36c0-.46.11-.88.33-1.27.22-.39.51-.66.86-.82h-5.33c-.9,0-1.35-.31-1.35-.92h9.35Z" />
      <path class="cls-6" d="M120.15,94.59c0,.61-.3.92-.9.92h-.58c-.33,0-.54.22-.65.66-.04.19-.06.55-.06,1.07v6.73c0,1.33-.56,2-1.69,2v-8.36c0-.46.11-.88.33-1.27.22-.39.51-.66.86-.82h-5.33c-.9,0-1.35-.31-1.35-.92h9.35Z" />
    </g>
    <g>
      <path class="cls-1" d="M124.11,99.16c0,1.32-.56,1.98-1.69,1.98v-5.78c0-.62.28-.93.83-.93.23,0,.43.09.6.27.17.18.26.43.26.75v3.71Z" />
      <path class="cls-6" d="M124.11,99.16c0,1.32-.56,1.98-1.69,1.98v-5.78c0-.62.28-.93.83-.93.23,0,.43.09.6.27.17.18.26.43.26.75v3.71Z" />
    </g>
    <g>
      <path class="cls-1" d="M134.21,98.45c0,1.42-.59,2.79-1.76,4.12-.72.81-1.62,1.55-2.68,2.21-.96.58-1.85.97-2.64,1.18,0-.43.22-.78.67-1.05,1.67-.97,2.89-2,3.65-3.1.65-.92.97-1.95.97-3.09,0-1.06-.32-1.88-.97-2.46-.58-.5-1.32-.75-2.22-.75h-3.46v-2.5c0-1.24.56-1.86,1.69-1.86v3.41h2.7c1.3,0,2.32.37,3.04,1.1.68.69,1.02,1.61,1.02,2.77Z" />
      <path class="cls-6" d="M134.21,98.45c0,1.42-.59,2.79-1.76,4.12-.72.81-1.62,1.55-2.68,2.21-.96.58-1.85.97-2.64,1.18,0-.43.22-.78.67-1.05,1.67-.97,2.89-2,3.65-3.1.65-.92.97-1.95.97-3.09,0-1.06-.32-1.88-.97-2.46-.58-.5-1.32-.75-2.22-.75h-3.46v-2.5c0-1.24.56-1.86,1.69-1.86v3.41h2.7c1.3,0,2.32.37,3.04,1.1.68.69,1.02,1.61,1.02,2.77Z" />
    </g>
    <g>
      <path class="cls-1" d="M141.26,104.61c0,.5-.3.96-.9,1.36-.19-.18-.41-.66-.68-1.45-.24-.68-.41-1.25-.5-1.71-.01-.06-.04-.07-.07-.04-.02.03-.04.06-.06.09-.32,1.55-1.25,2.57-2.81,3.08-.04.01-.14.02-.31.02-.12,0-.23-.07-.32-.2-.09-.13-.13-.27-.13-.41,0-.29.17-.5.51-.64.99-.41,1.71-.87,2.17-1.39.51-.58.76-1.3.76-2.16v-3.48c0-.79-.17-1.39-.52-1.83-.33-.39-.76-.58-1.29-.58h-.24c-.58,0-.89-.23-.96-.69.22-.09.69-.13,1.41-.13.96,0,1.74.33,2.34.98.6.65.9,1.53.9,2.63v3.01c0,.88.18,1.86.55,2.92.09.25.14.46.14.61Z" />
      <path class="cls-6" d="M141.26,104.61c0,.5-.3.96-.9,1.36-.19-.18-.41-.66-.68-1.45-.24-.68-.41-1.25-.5-1.71-.01-.06-.04-.07-.07-.04-.02.03-.04.06-.06.09-.32,1.55-1.25,2.57-2.81,3.08-.04.01-.14.02-.31.02-.12,0-.23-.07-.32-.2-.09-.13-.13-.27-.13-.41,0-.29.17-.5.51-.64.99-.41,1.71-.87,2.17-1.39.51-.58.76-1.3.76-2.16v-3.48c0-.79-.17-1.39-.52-1.83-.33-.39-.76-.58-1.29-.58h-.24c-.58,0-.89-.23-.96-.69.22-.09.69-.13,1.41-.13.96,0,1.74.33,2.34.98.6.65.9,1.53.9,2.63v3.01c0,.88.18,1.86.55,2.92.09.25.14.46.14.61Z" />
    </g>
    <g>
      <path class="cls-1" d="M158.08,105.05c0,.38-.12.69-.36.93l-6.15-6.96c-.9.33-1.35,1.21-1.35,2.64v2.39c0,.58-.15,1.05-.44,1.4-.29.35-.7.52-1.23.52v-3.39c0-1.96.82-3.34,2.47-4.14l-2.09-2.23c-.28-.29-.42-.6-.42-.93,0-.42.17-.75.51-.98l5.6,6.15c.8-.51,1.2-1.3,1.2-2.38v-1.83c0-.63.16-1.11.48-1.44.32-.33.72-.49,1.22-.49v2.87c0,.82-.24,1.59-.72,2.3-.45.62-1.01,1.12-1.71,1.51l2.56,2.89c.29.33.44.71.44,1.14Z" />
      <path class="cls-6" d="M158.08,105.05c0,.38-.12.69-.36.93l-6.15-6.96c-.9.33-1.35,1.21-1.35,2.64v2.39c0,.58-.15,1.05-.44,1.4-.29.35-.7.52-1.23.52v-3.39c0-1.96.82-3.34,2.47-4.14l-2.09-2.23c-.28-.29-.42-.6-.42-.93,0-.42.17-.75.51-.98l5.6,6.15c.8-.51,1.2-1.3,1.2-2.38v-1.83c0-.63.16-1.11.48-1.44.32-.33.72-.49,1.22-.49v2.87c0,.82-.24,1.59-.72,2.3-.45.62-1.01,1.12-1.71,1.51l2.56,2.89c.29.33.44.71.44,1.14Z" />
    </g>
    <g>
      <path class="cls-1" d="M167.84,98.45c0,1.42-.59,2.79-1.76,4.12-.72.81-1.62,1.55-2.68,2.21-.96.58-1.85.97-2.64,1.18,0-.43.22-.78.67-1.05,1.67-.97,2.88-2,3.65-3.1.65-.92.97-1.95.97-3.09,0-1.06-.33-1.88-.97-2.46-.58-.5-1.32-.75-2.22-.75h-3.46v-2.5c0-1.24.56-1.86,1.69-1.86v3.41h2.7c1.3,0,2.32.37,3.04,1.1.68.69,1.02,1.61,1.02,2.77Z" />
      <path class="cls-6" d="M167.84,98.45c0,1.42-.59,2.79-1.76,4.12-.72.81-1.62,1.55-2.68,2.21-.96.58-1.85.97-2.64,1.18,0-.43.22-.78.67-1.05,1.67-.97,2.88-2,3.65-3.1.65-.92.97-1.95.97-3.09,0-1.06-.33-1.88-.97-2.46-.58-.5-1.32-.75-2.22-.75h-3.46v-2.5c0-1.24.56-1.86,1.69-1.86v3.41h2.7c1.3,0,2.32.37,3.04,1.1.68.69,1.02,1.61,1.02,2.77Z" />
    </g>
    <g>
      <path class="cls-1" d="M177.76,98.45c0,1.42-.59,2.79-1.76,4.12-.72.81-1.62,1.55-2.68,2.21-.96.58-1.85.97-2.64,1.18,0-.43.22-.78.67-1.05,1.67-.97,2.89-2,3.65-3.1.65-.92.97-1.95.97-3.09,0-1.06-.32-1.88-.97-2.46-.58-.5-1.32-.75-2.22-.75h-3.46v-2.5c0-1.24.56-1.86,1.69-1.86v3.41h2.7c1.3,0,2.32.37,3.04,1.1.68.69,1.02,1.61,1.02,2.77Z" />
      <path class="cls-6" d="M177.76,98.45c0,1.42-.59,2.79-1.76,4.12-.72.81-1.62,1.55-2.68,2.21-.96.58-1.85.97-2.64,1.18,0-.43.22-.78.67-1.05,1.67-.97,2.89-2,3.65-3.1.65-.92.97-1.95.97-3.09,0-1.06-.32-1.88-.97-2.46-.58-.5-1.32-.75-2.22-.75h-3.46v-2.5c0-1.24.56-1.86,1.69-1.86v3.41h2.7c1.3,0,2.32.37,3.04,1.1.68.69,1.02,1.61,1.02,2.77Z" />
    </g>
  </g>
  <g>
    <path class="cls-1" d="M35.19,120.31h3.01c1.1,0,1.42.6,1.42,2.19v3.2h-.77v-2.63c0-1.06-.24-1.27-1.03-1.27h-1.72v7.42h-.91v-8.91ZM37.07,123.92h.77v2.7c0,1.03.51,1.11,1.16,1.11h1.6v-7.42h.92v8.91h-3.11c-1.22,0-1.36-.98-1.36-2.52v-2.78Z" />
    <path class="cls-1" d="M50.98,126.1h-1.14v1.36c0,.6-.1,1.12-.3,1.56-.25.5-.58.75-1.01.75-.13,0-.25-.02-.37-.05v-3.62h-4.67c-.41,0-.62-.2-.62-.6,0-.19.04-.35.11-.49,2.57-4.7,4.11-8.55,4.61-11.56.27.07.53.31.77.74.25.42.37.91.37,1.47,0,.26-.03.49-.08.7-.27,1.06-.8,2.46-1.6,4.21-.83,1.8-1.61,3.24-2.34,4.31h3.46v-2.08c0-.68.15-1.24.44-1.69.28-.4.6-.6.97-.6.09,0,.18.02.26.05v4.31l.4.05c.21.02.38.15.52.39.14.25.21.49.21.72v.05Z" />
    <path class="cls-1" d="M59.61,124.23c0,1.64-.39,2.98-1.18,4.02-.74.97-1.65,1.46-2.73,1.46-.8,0-1.48-.3-2.06-.91-.58-.6-.92-1.39-1.02-2.34.11-.03.21-.05.29-.05.4,0,.69.24.88.72.38.97,1,1.46,1.85,1.46.6,0,1.11-.4,1.54-1.2.42-.8.63-1.8.63-3.01,0-2.63-.74-3.95-2.22-3.95-.39,0-.79.27-1.18.82-.39.55-.81.82-1.26.82-.06,0-.16-.02-.28-.05l.81-7.51c.02-.23.15-.34.37-.34h4.96c0,.31-.13.6-.39.86-.26.26-.52.39-.76.39h-2.61l-.53,4.31c.23-.31.63-.47,1.19-.47,1.08,0,1.96.44,2.66,1.33.69.88,1.04,2.1,1.04,3.64Z" />
  </g>
  <g>
    <g>
      <path class="cls-1" d="M79.07,127.56c0,1.34-.58,2.01-1.74,2.01v-6.37c0-1.34-.36-2.4-1.08-3.16-.72-.77-1.8-1.15-3.23-1.15-.64,0-1.23.08-1.76.23-.23.06-.43.09-.61.09-.4,0-.7-.18-.89-.54.81-.46,2.02-.7,3.63-.7,1.89,0,3.33.49,4.33,1.47.9.89,1.35,2.1,1.35,3.62v4.48ZM71.71,127.64c0,1.29-.57,1.94-1.71,1.94v-5.7c0-.35.08-.62.26-.81.17-.19.37-.29.6-.29s.42.09.58.26c.18.22.27.5.27.84v3.76Z" />
      <path class="cls-6" d="M79.07,127.56c0,1.34-.58,2.01-1.74,2.01v-6.37c0-1.34-.36-2.4-1.08-3.16-.72-.77-1.8-1.15-3.23-1.15-.64,0-1.23.08-1.76.23-.23.06-.43.09-.61.09-.4,0-.7-.18-.89-.54.81-.46,2.02-.7,3.63-.7,1.89,0,3.33.49,4.33,1.47.9.89,1.35,2.1,1.35,3.62v4.48ZM71.71,127.64c0,1.29-.57,1.94-1.71,1.94v-5.7c0-.35.08-.62.26-.81.17-.19.37-.29.6-.29s.42.09.58.26c.18.22.27.5.27.84v3.76Z" />
    </g>
    <g>
      <path class="cls-1" d="M89.74,118.21c0,.61-.3.92-.9.92h-.58c-.33,0-.54.22-.65.66-.04.19-.06.55-.06,1.07v6.73c0,1.33-.56,2-1.69,2v-8.36c0-.46.11-.88.33-1.27.22-.39.51-.66.86-.82h-5.33c-.9,0-1.34-.31-1.34-.92h9.35Z" />
      <path class="cls-6" d="M89.74,118.21c0,.61-.3.92-.9.92h-.58c-.33,0-.54.22-.65.66-.04.19-.06.55-.06,1.07v6.73c0,1.33-.56,2-1.69,2v-8.36c0-.46.11-.88.33-1.27.22-.39.51-.66.86-.82h-5.33c-.9,0-1.34-.31-1.34-.92h9.35Z" />
    </g>
    <g>
      <path class="cls-1" d="M93.7,122.78c0,1.32-.56,1.98-1.69,1.98v-5.78c0-.62.28-.93.83-.93.23,0,.43.09.6.27.17.18.25.43.25.75v3.71Z" />
      <path class="cls-6" d="M93.7,122.78c0,1.32-.56,1.98-1.69,1.98v-5.78c0-.62.28-.93.83-.93.23,0,.43.09.6.27.17.18.25.43.25.75v3.71Z" />
    </g>
    <g>
      <path class="cls-1" d="M103.8,122.07c0,1.42-.59,2.79-1.76,4.12-.72.81-1.62,1.55-2.68,2.21-.96.58-1.85.97-2.64,1.18,0-.43.22-.78.67-1.05,1.67-.97,2.88-2,3.65-3.1.65-.92.97-1.95.97-3.09,0-1.06-.33-1.88-.97-2.46-.58-.5-1.32-.75-2.22-.75h-3.46v-2.5c0-1.24.56-1.86,1.69-1.86v3.41h2.7c1.3,0,2.32.37,3.04,1.1.68.69,1.02,1.61,1.02,2.77Z" />
      <path class="cls-6" d="M103.8,122.07c0,1.42-.59,2.79-1.76,4.12-.72.81-1.62,1.55-2.68,2.21-.96.58-1.85.97-2.64,1.18,0-.43.22-.78.67-1.05,1.67-.97,2.88-2,3.65-3.1.65-.92.97-1.95.97-3.09,0-1.06-.33-1.88-.97-2.46-.58-.5-1.32-.75-2.22-.75h-3.46v-2.5c0-1.24.56-1.86,1.69-1.86v3.41h2.7c1.3,0,2.32.37,3.04,1.1.68.69,1.02,1.61,1.02,2.77Z" />
    </g>
    <g>
      <path class="cls-1" d="M110.85,128.23c0,.5-.3.96-.9,1.36-.19-.18-.41-.66-.68-1.45-.24-.68-.41-1.25-.5-1.71-.01-.06-.04-.07-.07-.04-.03.03-.04.06-.06.09-.32,1.55-1.25,2.57-2.81,3.08-.04.01-.14.02-.31.02-.12,0-.23-.07-.32-.2s-.13-.27-.13-.41c0-.29.17-.5.51-.64.99-.41,1.71-.87,2.17-1.39.51-.58.76-1.3.76-2.16v-3.48c0-.79-.17-1.39-.52-1.83-.33-.39-.76-.58-1.29-.58h-.24c-.58,0-.89-.23-.96-.69.22-.09.69-.13,1.41-.13.96,0,1.74.33,2.34.98.6.65.91,1.53.91,2.63v3.01c0,.88.18,1.86.55,2.92.09.25.14.46.14.61Z" />
      <path class="cls-6" d="M110.85,128.23c0,.5-.3.96-.9,1.36-.19-.18-.41-.66-.68-1.45-.24-.68-.41-1.25-.5-1.71-.01-.06-.04-.07-.07-.04-.03.03-.04.06-.06.09-.32,1.55-1.25,2.57-2.81,3.08-.04.01-.14.02-.31.02-.12,0-.23-.07-.32-.2s-.13-.27-.13-.41c0-.29.17-.5.51-.64.99-.41,1.71-.87,2.17-1.39.51-.58.76-1.3.76-2.16v-3.48c0-.79-.17-1.39-.52-1.83-.33-.39-.76-.58-1.29-.58h-.24c-.58,0-.89-.23-.96-.69.22-.09.69-.13,1.41-.13.96,0,1.74.33,2.34.98.6.65.91,1.53.91,2.63v3.01c0,.88.18,1.86.55,2.92.09.25.14.46.14.61Z" />
    </g>
    <g>
      <path class="cls-1" d="M125.75,127.56c0,1.34-.58,2.01-1.73,2.01v-6.4c0-1.34-.34-2.39-1.01-3.14s-1.66-1.13-2.96-1.13c-.36,0-.85.08-1.48.23-.22.05-.37.07-.46.07-.22,0-.44-.21-.67-.63.75-.39,1.75-.58,3.01-.58,1.63,0,2.92.42,3.85,1.25.96.87,1.45,2.09,1.45,3.65v4.68Z" />
      <path class="cls-6" d="M125.75,127.56c0,1.34-.58,2.01-1.73,2.01v-6.4c0-1.34-.34-2.39-1.01-3.14s-1.66-1.13-2.96-1.13c-.36,0-.85.08-1.48.23-.22.05-.37.07-.46.07-.22,0-.44-.21-.67-.63.75-.39,1.75-.58,3.01-.58,1.63,0,2.92.42,3.85,1.25.96.87,1.45,2.09,1.45,3.65v4.68Z" />
    </g>
    <g>
      <path class="cls-1" d="M129.91,127.6c0,1.33-.56,1.99-1.69,1.99v-10.62c0-.62.28-.93.83-.93.23,0,.43.09.6.27.17.18.26.43.26.75v8.54Z" />
      <path class="cls-6" d="M129.91,127.6c0,1.33-.56,1.99-1.69,1.99v-10.62c0-.62.28-.93.83-.93.23,0,.43.09.6.27.17.18.26.43.26.75v8.54Z" />
    </g>
    <g>
      <path class="cls-1" d="M140.77,118.21c0,.61-.3.92-.9.92h-.58c-.33,0-.54.22-.65.66-.04.19-.06.55-.06,1.07v6.73c0,1.33-.56,2-1.69,2v-8.36c0-.46.11-.88.33-1.27.22-.39.51-.66.86-.82h-5.33c-.9,0-1.35-.31-1.35-.92h9.35Z" />
      <path class="cls-6" d="M140.77,118.21c0,.61-.3.92-.9.92h-.58c-.33,0-.54.22-.65.66-.04.19-.06.55-.06,1.07v6.73c0,1.33-.56,2-1.69,2v-8.36c0-.46.11-.88.33-1.27.22-.39.51-.66.86-.82h-5.33c-.9,0-1.35-.31-1.35-.92h9.35Z" />
    </g>
    <g>
      <path class="cls-1" d="M150.19,123.63c0,1.79-.55,3.23-1.65,4.31-1.04,1.05-2.35,1.58-3.93,1.58-.93,0-1.83-.16-2.7-.49.24-.45.5-.67.76-.67-.01,0,.14.04.46.11.36.09.73.14,1.1.14,1.2,0,2.17-.42,2.92-1.24.82-.88,1.23-2.13,1.23-3.74,0-1.5-.4-2.67-1.2-3.52-.76-.81-1.75-1.22-2.96-1.22-.5,0-.88.04-1.16.11-.23.07-.41.1-.53.1-.18,0-.39-.22-.63-.67.64-.33,1.54-.49,2.7-.49,1.58,0,2.89.47,3.92,1.42,1.11,1.04,1.67,2.46,1.67,4.26Z" />
      <path class="cls-6" d="M150.19,123.63c0,1.79-.55,3.23-1.65,4.31-1.04,1.05-2.35,1.58-3.93,1.58-.93,0-1.83-.16-2.7-.49.24-.45.5-.67.76-.67-.01,0,.14.04.46.11.36.09.73.14,1.1.14,1.2,0,2.17-.42,2.92-1.24.82-.88,1.23-2.13,1.23-3.74,0-1.5-.4-2.67-1.2-3.52-.76-.81-1.75-1.22-2.96-1.22-.5,0-.88.04-1.16.11-.23.07-.41.1-.53.1-.18,0-.39-.22-.63-.67.64-.33,1.54-.49,2.7-.49,1.58,0,2.89.47,3.92,1.42,1.11,1.04,1.67,2.46,1.67,4.26Z" />
    </g>
    <g>
      <path class="cls-1" d="M167.04,128.09c-.43.62-.94.99-1.54,1.1h-8.03v-10.51c.99-.46,2.21-.7,3.67-.7,1.86,0,3.31.46,4.35,1.39,1.04.92,1.56,2.17,1.56,3.74v4.97ZM165.32,128.27v-5.17c0-1.32-.4-2.35-1.2-3.09s-1.93-1.11-3.39-1.11c-.71,0-1.23.07-1.58.21v9.16h6.16Z" />
      <path class="cls-6" d="M167.04,128.09c-.43.62-.94.99-1.54,1.1h-8.03v-10.51c.99-.46,2.21-.7,3.67-.7,1.86,0,3.31.46,4.35,1.39,1.04.92,1.56,2.17,1.56,3.74v4.97ZM165.32,128.27v-5.17c0-1.32-.4-2.35-1.2-3.09s-1.93-1.11-3.39-1.11c-.71,0-1.23.07-1.58.21v9.16h6.16Z" />
    </g>
    <g>
      <path class="cls-1" d="M177.57,122.22c0,3.28-1.45,5.52-4.35,6.71-.59.24-1.41.49-2.45.74-.96.23-1.73.38-2.3.44.15-.63.52-1,1.1-1.09.79-.12,1.43-.27,1.94-.46l-2.26-7.82c-.1-.36-.15-.69-.15-.99,0-.5.12-.91.36-1.25.24-.34.53-.52.88-.55l2.65,10.14c.53-.24.95-.49,1.26-.74,1.06-.87,1.6-2.36,1.6-4.46v-2.89c0-1.37.58-2.05,1.73-2.05v4.29Z" />
      <path class="cls-6" d="M177.57,122.22c0,3.28-1.45,5.52-4.35,6.71-.59.24-1.41.49-2.45.74-.96.23-1.73.38-2.3.44.15-.63.52-1,1.1-1.09.79-.12,1.43-.27,1.94-.46l-2.26-7.82c-.1-.36-.15-.69-.15-.99,0-.5.12-.91.36-1.25.24-.34.53-.52.88-.55l2.65,10.14c.53-.24.95-.49,1.26-.74,1.06-.87,1.6-2.36,1.6-4.46v-2.89c0-1.37.58-2.05,1.73-2.05v4.29Z" />
    </g>
  </g>
  
  <g fill="#231f20"><path class="cls-1" d="M118.57,71.32c-2.02-.85-3.96-2.12-5.87-2.12,1.91,0,3.85-1.27,5.87-2.12,1.15.85,1.79,1.42,3.7,2.12-1.91.7-2.55,1.27-3.7,2.12Z"/>
    <path class="cls-1" d="M192.47,68.31h-72.17c-.39,0-.71.45-.71.85s.32.85.71.85h72.17c.39,0,.71-.45.71-.85s-.32-.85-.71-.85Z"/>
    <path class="cls-1" d="M111.33,75.62c-1.7-.44-2.78-2.52-3.01-3.16-.3-.82-.54-1.66-.59-2.48h-.54c-.13,1.44.34,3.36,1.07,5.64.83,2.59-.99,5.45-1.7,5.45s-2.53-2.86-1.7-5.45c.73-2.28,1.2-4.2,1.07-5.64h-.54c-.05.82-.3,1.66-.59,2.48-.23.64-1.32,2.72-3.01,3.16-1.42.37-3.36-.83-3.44-2.99-.03-.84.5-2.52,1.95-2.62.63-.04,1.29.3,1.13.57-.34.55-.3,1.21-.2,1.38.4.67,1.23.64,1.75.24.78-.59,1.29-1.11,1.63-2.21h-.82c-.52,0-.58-1.01,0-1.01h1.66c-.1-.08-.22-.15-.34-.24-.46-.34-1-.67-1.52-.54-.27.07-.46.02-.43-.17.26-1.48,1.89-1.31,2.32-.74-.53-.64.73-2.35,1.1-2.35s1.63,1.71,1.1,2.35c.43-.57,2.05-.74,2.32.74.03.19-.17.23-.43.17-.52-.13-1.06.2-1.52.54-.12.09-.24.17-.34.24h1.66c.58,0,.52,1.01,0,1.01h-.82c.34,1.1.85,1.62,1.63,2.21.53.4,1.36.44,1.76-.24.1-.17.14-.83-.2-1.38-.17-.27.5-.62,1.13-.57,1.46.1,1.99,1.78,1.95,2.62-.08,2.15-2.02,3.36-3.44,2.99Z"/>
    <path class="cls-1" d="M196.01,66.54c-.24.95-1.36,1.55-1.71,1.68-.44.17-.89.3-1.34.33v.3c.78.07,1.81-.19,3.05-.59,1.4-.46,2.95.55,2.95.95s-1.55,1.41-2.95.95c-1.23-.41-2.27-.67-3.05-.59v.3c.45.03.9.16,1.34.33.35.13,1.47.73,1.71,1.68.2.79-.45,1.87-1.62,1.92-.45.02-1.36-.28-1.42-1.09-.02-.35.16-.72.31-.63.3.19.65.17.74.11.36-.22.34-.68.13-.98-.32-.43-.6-.72-1.19-.91v.46c0,.29-.54.32-.54,0v-.92c-.04.06-.08.12-.13.19-.18.26-.36.56-.29.85.04.15,0,.26-.09.24-.8-.15-.71-1.05-.4-1.29-.34.29-1.27-.41-1.27-.61s.92-.91,1.27-.61c-.31-.24-.4-1.14.4-1.29.1-.02.13.09.09.24-.07.29.11.59.29.85.05.07.09.13.13.19v-.92c0-.32.54-.29.54,0v.46c.6-.19.88-.47,1.19-.91.22-.3.24-.76-.13-.98-.09-.06-.45-.08-.74.11-.15.09-.33-.28-.31-.63.05-.81.96-1.11,1.42-1.09,1.17.05,1.82,1.12,1.62,1.92Z"/>
    <path class="cls-1" d="M94.52,71.32c2.02-.85,3.96-2.12,5.87-2.12-1.91,0-3.85-1.27-5.87-2.12-1.15.85-1.79,1.42-3.7,2.12,1.91.7,2.55,1.27,3.7,2.12Z"/>
    <path class="cls-1" d="M20.63,68.31h72.17c.39,0,.71.45.71.85s-.32.85-.71.85H20.63c-.39,0-.71-.45-.71-.85s.32-.85.71-.85Z"/>
    <path class="cls-1" d="M17.08,66.54c.24.95,1.36,1.55,1.71,1.68.44.17.89.3,1.34.33v.3c-.78.07-1.81-.19-3.05-.59-1.4-.46-2.95.55-2.95.95s1.55,1.41,2.95.95c1.23-.41,2.27-.67,3.05-.59v.3c-.45.03-.9.16-1.34.33-.35.13-1.47.73-1.71,1.68-.2.79.45,1.87,1.62,1.92.45.02,1.36-.28,1.42-1.09.02-.35-.16-.72-.31-.63-.3.19-.65.17-.74.11-.36-.22-.34-.68-.13-.98.32-.43.6-.72,1.19-.91v.46c0,.29.54.32.54,0v-.92c.04.06.08.12.13.19.18.26.36.56.29.85-.04.15,0,.26.09.24.8-.15.71-1.05.4-1.29.35.29,1.27-.41,1.27-.61s-.92-.91-1.27-.61c.31-.24.4-1.14-.4-1.29-.1-.02-.13.09-.09.24.07.29-.11.59-.29.85-.05.07-.09.13-.13.19v-.92c0-.32-.54-.29-.54,0v.46c-.6-.19-.88-.47-1.19-.91-.22-.3-.24-.76.13-.98.09-.06.45-.08.74.11.15.09.33-.28.31-.63-.05-.81-.96-1.11-1.42-1.09-1.17.05-1.82,1.12-1.62,1.92Z"/></g>
</svg>