<?xml version="1.0" encoding="UTF-8"?>
<!-- Personal-desserts tag art (קינוחים אישיים). viewBox per Illustrator source 213.6x142.73.
     Same decorative system as cakes. Text is outlined by lib/renderer.js. -->
<svg xmlns="http://www.w3.org/2000/svg" viewBox="0 0 213.6 142.73">
  <path class="bg" fill="#fff" opacity=".25" stroke="#58595b" stroke-width=".5" stroke-miterlimit="10"
        d="M.5.5h212.6v138.58c0,1.74-1.41,3.15-3.15,3.15H.5V.5h0Z"/>
  <g class="ornament" fill="#231f20">
    <path class="cls-1" d="M118.57,71.32c-2.02-.85-3.96-2.12-5.87-2.12,1.91,0,3.85-1.27,5.87-2.12,1.15.85,1.79,1.42,3.7,2.12-1.91.7-2.55,1.27-3.7,2.12Z"/>
    <path class="cls-1" d="M192.47,68.31h-72.17c-.39,0-.71.45-.71.85s.32.85.71.85h72.17c.39,0,.71-.45.71-.85s-.32-.85-.71-.85Z"/>
    <path class="cls-1" d="M111.33,75.62c-1.7-.44-2.78-2.52-3.01-3.16-.3-.82-.54-1.66-.59-2.48h-.54c-.13,1.44.34,3.36,1.07,5.64.83,2.59-.99,5.45-1.7,5.45s-2.53-2.86-1.7-5.45c.73-2.28,1.2-4.2,1.07-5.64h-.54c-.05.82-.3,1.66-.59,2.48-.23.64-1.32,2.72-3.01,3.16-1.42.37-3.36-.83-3.44-2.99-.03-.84.5-2.52,1.95-2.62.63-.04,1.29.3,1.13.57-.34.55-.3,1.21-.2,1.38.4.67,1.23.64,1.75.24.78-.59,1.29-1.11,1.63-2.21h-.82c-.52,0-.58-1.01,0-1.01h1.66c-.1-.08-.22-.15-.34-.24-.46-.34-1-.67-1.52-.54-.27.07-.46.02-.43-.17.26-1.48,1.89-1.31,2.32-.74-.53-.64.73-2.35,1.1-2.35s1.63,1.71,1.1,2.35c.43-.57,2.05-.74,2.32.74.03.19-.17.23-.43.17-.52-.13-1.06.2-1.52.54-.12.09-.24.17-.34.24h1.66c.58,0,.52,1.01,0,1.01h-.82c.34,1.1.85,1.62,1.63,2.21.53.4,1.36.44,1.76-.24.1-.17.14-.83-.2-1.38-.17-.27.5-.62,1.13-.57,1.46.1,1.99,1.78,1.95,2.62-.08,2.15-2.02,3.36-3.44,2.99Z"/>
    <path class="cls-1" d="M196.01,66.54c-.24.95-1.36,1.55-1.71,1.68-.44.17-.89.3-1.34.33v.3c.78.07,1.81-.19,3.05-.59,1.4-.46,2.95.55,2.95.95s-1.55,1.41-2.95.95c-1.23-.41-2.27-.67-3.05-.59v.3c.45.03.9.16,1.34.33.35.13,1.47.73,1.71,1.68.2.79-.45,1.87-1.62,1.92-.45.02-1.36-.28-1.42-1.09-.02-.35.16-.72.31-.63.3.19.65.17.74.11.36-.22.34-.68.13-.98-.32-.43-.6-.72-1.19-.91v.46c0,.29-.54.32-.54,0v-.92c-.04.06-.08.12-.13.19-.18.26-.36.56-.29.85.04.15,0,.26-.09.24-.8-.15-.71-1.05-.4-1.29-.34.29-1.27-.41-1.27-.61s.92-.91,1.27-.61c-.31-.24-.4-1.14.4-1.29.1-.02.13.09.09.24-.07.29.11.59.29.85.05.07.09.13.13.19v-.92c0-.32.54-.29.54,0v.46c.6-.19.88-.47,1.19-.91.22-.3.24-.76-.13-.98-.09-.06-.45-.08-.74.11-.15.09-.33-.28-.31-.63.05-.81.96-1.11,1.42-1.09,1.17.05,1.82,1.12,1.62,1.92Z"/>
    <path class="cls-1" d="M94.52,71.32c2.02-.85,3.96-2.12,5.87-2.12-1.91,0-3.85-1.27-5.87-2.12-1.15.85-1.79,1.42-3.7,2.12,1.91.7,2.55,1.27,3.7,2.12Z"/>
    <path class="cls-1" d="M20.63,68.31h72.17c.39,0,.71.45.71.85s-.32.85-.71.85H20.63c-.39,0-.71-.45-.71-.85s.32-.85.71-.85Z"/>
    <path class="cls-1" d="M17.08,66.54c.24.95,1.36,1.55,1.71,1.68.44.17.89.3,1.34.33v.3c-.78.07-1.81-.19-3.05-.59-1.4-.46-2.95.55-2.95.95s1.55,1.41,2.95.95c1.23-.41,2.27-.67,3.05-.59v.3c-.45.03-.9.16-1.34.33-.35.13-1.47.73-1.71,1.68-.2.79.45,1.87,1.62,1.92.45.02,1.36-.28,1.42-1.09.02-.35-.16-.72-.31-.63-.3.19-.65.17-.74.11-.36-.22-.34-.68-.13-.98.32-.43.6-.72,1.19-.91v.46c0,.29.54.32.54,0v-.92c.04.06.08.12.13.19.18.26.36.56.29.85-.04.15,0,.26.09.24.8-.15.71-1.05.4-1.29.35.29,1.27-.41,1.27-.61s-.92-.91-1.27-.61c.31-.24.4-1.14-.4-1.29-.1-.02-.13.09-.09.24.07.29-.11.59-.29.85-.05.07-.09.13-.13.19v-.92c0-.32-.54-.29-.54,0v.46c-.6-.19-.88-.47-1.19-.91-.22-.3-.24-.76.13-.98.09-.06.45-.08.74.11.15.09.33-.28.31-.63-.05-.81-.96-1.11-1.42-1.09-1.17.05-1.82,1.12-1.62,1.92Z"/>
  
  </g>
</svg>
